<svg xmlns="http://www.w3.org/2000/svg" viewBox="0 0 120 240"><defs><style>.cls-1{fill:#fff;}</style></defs><title>Asset 1</title><g id="Layer_2" data-name="Layer 2"><g id="Layer_1-2" data-name="Layer 1"><path class="cls-1" d="M90,30A30,30,0,0,0,60,0H30V15A15,15,0,0,0,45,30H57.5A2.5,2.5,0,0,1,60,32.5V45A15,15,0,0,0,75,60H87.5A2.5,2.5,0,0,1,90,62.5v25A2.5,2.5,0,0,1,87.5,90H75a15,15,0,0,0-15,15v45H15A15,15,0,0,0,0,165v75H60a30,30,0,0,0,30-30V120a30,30,0,0,0,30-30V60A30,30,0,0,0,90,30ZM60,207.5a2.5,2.5,0,0,1-2.5,2.5H30V182.5a2.5,2.5,0,0,1,2.5-2.5H60Z"/></g></g></svg>